<svg xmlns="http://www.w3.org/2000/svg" width="86" height="56" viewBox="0 0 86 56">
    <g fill="none" fill-rule="evenodd">
        <g fill="#FFF">
            <g>
                <path d="M95.678 56.636v-5.505l5.668-.019c.3.001.609.025.898.099.71.181 1.152.705 1.177 1.432.03.876.033 1.561.002 2.437-.033.886-.642 1.523-1.594 1.542-2.166.045-3.945.014-6.151.014zm.022 5.218c1.053 0 1.694-.002 2.724 0 1.123.001 2.247-.014 3.369.012 1.444.034 2.188.626 2.19 2.068 0 .605.005.63-.002 1.234-.012 1.077-.613 1.799-1.668 2.008-.164.033-.33.067-.496.067-2.153.005-3.918.003-6.117.003v-5.392zM71.904 56.6v-5.494h1.285c1.26 0 2.52-.004 3.781 0 1.724.006 2.703 1.168 2.725 2.888.001-.132.006-.22.025.096.091 1.556-1.208 2.46-2.349 2.496-1.804.055-3.612.014-5.467.014zm-2.327 15.12h3.235l.016-1.146c-.717-.484-.96-1.758-.952-2.826.011-1.465.003-4.369.003-5.904h.557c2.442-.004 4.885.012 7.328-.02 1.41-.018 2.77-.321 4.007-1.033 1.644-.945 2.589-2.406 2.914-4.233.383-2.157.396-2.643.028-4.794-.509-2.973-2.417-4.775-5.4-5.296l-.011-.003c-.7-.122-1.408-.187-2.119-.187h-9.607L87 34.933l17.425 11.346h-16.79v1.059c.638.785 1.09 1.104 1.09 2.742.01 6.127.009 12.061.001 17.801-.001.992-.46 1.93-1.091 2.706l-.003 1.134h16.792L87 83.067 69.577 71.72zm-4.61-22.44c.069.355.102.73.103 1.113.02 7.99.011 13.618-.003 17.51-.001.285-.024.563-.07.836L50.041 59l14.926-9.72zm45.995 14.07c0-3.867-4.277-4.265-4.277-4.265l.907-.347c1.597-.722 2.678-2.119 2.793-3.935.076-1.203.071-2.617-.042-3.817-.032-.34-.09-.659-.169-.964L123.96 59l-13.156 8.567c.01-.054.022-.106.03-.16.228-2.965.128-4.056.128-4.056zM87 31L44 59l43 28 43-28-43-28z" transform="translate(-44 -31)"/>
            </g>
        </g>
    </g>
</svg>
